<svg width="19.500000" height="19.500000" viewBox="0 0 19.5 19.5" fill="none" xmlns="http://www.w3.org/2000/svg" xmlns:xlink="http://www.w3.org/1999/xlink">
	<desc>
			Created with Pixso.
	</desc>
	<defs/>
	<path id="Vector" d="M9.75 0C4.36 0 0 4.36 0 9.75C0 15.13 4.36 19.5 9.75 19.5C15.13 19.5 19.5 15.13 19.5 9.75C19.5 4.36 15.13 0 9.75 0ZM10.5 3.75C10.5 3.55 10.42 3.36 10.28 3.21C10.13 3.07 9.94 3 9.75 3C9.55 3 9.36 3.07 9.21 3.21C9.07 3.36 9 3.55 9 3.75L9 9.75C9 10.16 9.33 10.5 9.75 10.5L14.25 10.5C14.44 10.5 14.63 10.42 14.78 10.28C14.92 10.13 15 9.94 15 9.75C15 9.55 14.92 9.36 14.78 9.21C14.63 9.07 14.44 9 14.25 9L10.5 9L10.5 3.75Z" fill="#FF5400" fill-opacity="1.000000" fill-rule="evenodd"/>
</svg>
