<svg width="16.500000" height="20.248474" viewBox="0 0 16.5 20.2485" fill="none" xmlns="http://www.w3.org/2000/svg" xmlns:xlink="http://www.w3.org/1999/xlink">
	<desc>
			Created with Pixso.
	</desc>
	<defs/>
	<path id="Vector" d="M7.79 20.1L7.85 20.14L7.88 20.15C7.99 20.21 8.12 20.24 8.24 20.24C8.37 20.24 8.49 20.21 8.61 20.15L8.63 20.14L8.7 20.1C9.1 19.86 9.48 19.62 9.85 19.35C10.81 18.68 11.71 17.91 12.53 17.07C14.48 15.08 16.5 12.09 16.5 8.25C16.5 6.06 15.63 3.96 14.08 2.41C12.53 0.86 10.43 0 8.25 0C6.06 0 3.96 0.86 2.41 2.41C0.86 3.96 0 6.06 0 8.25C0 12.09 2.01 15.08 3.96 17.07C4.78 17.91 5.68 18.68 6.64 19.35C7.01 19.62 7.39 19.86 7.79 20.1ZM8.25 11.25C9.04 11.25 9.8 10.93 10.37 10.37C10.93 9.8 11.25 9.04 11.25 8.25C11.25 7.45 10.93 6.69 10.37 6.12C9.8 5.56 9.04 5.25 8.25 5.25C7.45 5.25 6.69 5.56 6.12 6.12C5.56 6.69 5.25 7.45 5.25 8.25C5.25 9.04 5.56 9.8 6.12 10.37C6.69 10.93 7.45 11.25 8.25 11.25Z" fill="#FF5400" fill-opacity="1.000000" fill-rule="evenodd"/>
</svg>
