<svg width="19.500000" height="18.750000" viewBox="0 0 19.5 18.75" fill="none" xmlns="http://www.w3.org/2000/svg" xmlns:xlink="http://www.w3.org/1999/xlink">
	<desc>
			Created with Pixso.
	</desc>
	<defs/>
	<path id="Vector" d="M6 3.75C6 2.75 6.39 1.8 7.09 1.09C7.8 0.39 8.75 0 9.75 0C10.74 0 11.69 0.39 12.4 1.09C13.1 1.8 13.5 2.75 13.5 3.75C13.5 4.74 13.1 5.69 12.4 6.4C11.69 7.1 10.74 7.5 9.75 7.5C8.75 7.5 7.8 7.1 7.09 6.4C6.39 5.69 6 4.74 6 3.75ZM13.5 6.75C13.5 5.95 13.81 5.19 14.37 4.62C14.94 4.06 15.7 3.75 16.5 3.75C17.29 3.75 18.05 4.06 18.62 4.62C19.18 5.19 19.5 5.95 19.5 6.75C19.5 7.54 19.18 8.3 18.62 8.87C18.05 9.43 17.29 9.75 16.5 9.75C15.7 9.75 14.94 9.43 14.37 8.87C13.81 8.3 13.5 7.54 13.5 6.75ZM0 6.75C0 5.95 0.31 5.19 0.87 4.62C1.44 4.06 2.2 3.75 3 3.75C3.79 3.75 4.55 4.06 5.12 4.62C5.68 5.19 6 5.95 6 6.75C6 7.54 5.68 8.3 5.12 8.87C4.55 9.43 3.79 9.75 3 9.75C2.2 9.75 1.44 9.43 0.87 8.87C0.31 8.3 0 7.54 0 6.75ZM4.06 12.11C4.66 11.16 5.51 10.37 6.5 9.82C7.5 9.28 8.61 8.99 9.75 9C10.69 8.99 11.63 9.19 12.5 9.58C13.37 9.97 14.14 10.53 14.78 11.24C15.41 11.95 15.89 12.78 16.18 13.69C16.47 14.59 16.56 15.55 16.45 16.49C16.44 16.61 16.4 16.72 16.34 16.82C16.27 16.92 16.18 17 16.08 17.06C14.15 18.17 11.97 18.75 9.75 18.75C7.44 18.75 5.28 18.13 3.41 17.06C3.31 17 3.22 16.92 3.15 16.82C3.09 16.72 3.05 16.61 3.04 16.49C2.87 14.96 3.23 13.41 4.06 12.11L4.06 12.11Z" fill="#FF5400" fill-opacity="1.000000" fill-rule="evenodd"/>
</svg>
